<svg width="176" height="184" viewBox="0 0 176 184" fill="none" xmlns="http://www.w3.org/2000/svg">
<path fill-rule="evenodd" clip-rule="evenodd" d="M60.4336 0H113.859V9.00124C110.235 9.10355 107.306 15.5295 107.247 23.49C114.824 25.4088 121.978 28.3888 128.541 32.2627C129.021 31.8578 129.56 31.4311 130.16 30.9767C140.195 23.3786 157.897 26.5082 168.57 40.6051C179.244 54.7019 175.714 72.3011 165.678 79.8991L165.533 80.0087C167.58 87.1527 168.676 94.6983 168.676 102.5C168.676 147.511 132.187 184 87.1763 184C42.165 184 5.67626 147.511 5.67626 102.5C5.67626 94.5323 6.8196 86.8317 8.95117 79.5533C-0.742129 71.778 -4.01155 54.4921 6.50307 40.6051C17.1765 26.5082 34.8781 23.3786 44.9131 30.9767C45.3921 31.3393 45.8322 31.6844 46.2341 32.0147C52.6643 28.2716 59.6533 25.3832 67.0456 23.5051C66.9908 15.5373 64.0593 9.10295 60.4336 9.00122V0Z" fill="black"/>
<path fill-rule="evenodd" clip-rule="evenodd" d="M87 37.002V106L144.258 137.705C132.622 157.001 111.676 170 87.5 170C50.7731 170 21 140.227 21 103.5C21 66.94 50.5032 37.2707 87 37.002Z" fill="#FF5D5D"/>
<path fill-rule="evenodd" clip-rule="evenodd" d="M145 68.2411V128L127 118V92.3091L112 84.1247V111L94 101.5V37.2202C100.319 37.8796 106.354 39.3289 112 41.4684V71.4938L127 79.6782V49.3854C134.223 54.4401 140.342 60.8378 145 68.2411Z" fill="#FF5E5E"/>
</svg>
