<svg width="143" height="69" viewBox="0 0 143 69" fill="none" xmlns="http://www.w3.org/2000/svg">
<circle cx="65.8804" cy="52.1153" r="3.575" fill="#FE0013"/>
<rect x="52.3381" y="18.0175" width="5.148" height="21.6825" fill="white"/>
<rect y="18.0176" width="5.148" height="21.6825" fill="white"/>
<rect x="12.2981" y="18.0175" width="5.148" height="21.6825" fill="white"/>
<rect x="5.14795" y="28.8589" width="7.15" height="1.04243" fill="white"/>
<rect x="88.6602" y="18.0175" width="5.148" height="21.6825" fill="white"/>
<path d="M88.6602 18.0175H93.8082L101.101 32.0903H95.9532L88.6602 18.0175Z" fill="white"/>
<rect x="103.246" y="18.0175" width="5.148" height="21.6825" fill="white"/>
<path d="M99.6709 32.0895L103.103 18.0398L104.533 18.0398L101.101 32.0895L99.6709 32.0895Z" fill="white"/>
<rect x="69.7839" y="18.0175" width="5.148" height="21.6825" fill="white"/>
<rect x="81.51" y="29.6931" width="5.148" height="10.0073" fill="white"/>
<rect x="74.3599" y="29.6931" width="7.15" height="1.04243" fill="white"/>
<rect x="86.6582" y="38.6584" width="1.144" height="1.04243" fill="white"/>
<rect x="60.6318" y="22.6041" width="5.148" height="16.6789" fill="white"/>
<rect x="57.772" y="26.5658" width="10.868" height="1.04243" fill="white"/>
<rect x="60.6318" y="38.6583" width="8.294" height="1.04243" fill="white"/>
<rect x="126.126" y="23.2294" width="5.148" height="16.6789" fill="white"/>
<rect x="137.852" y="25.7309" width="5.148" height="6.04609" fill="white"/>
<rect x="131.274" y="25.7309" width="6.578" height="1.04243" fill="white"/>
<rect x="126.126" y="39.283" width="8.294" height="1.04243" fill="white"/>
<rect x="19.7339" y="28.2339" width="5.148" height="11.4667" fill="white"/>
<rect x="28.886" y="28.2339" width="5.148" height="6.88004" fill="white"/>
<rect x="24.8818" y="28.2339" width="4.004" height="1.04243" fill="white"/>
<rect x="17.1599" y="34.0712" width="11.726" height="1.04243" fill="white"/>
<rect x="24.8818" y="38.6584" width="8.58" height="1.04243" fill="white"/>
<rect x="110.968" y="28.2339" width="5.148" height="11.4667" fill="white"/>
<rect x="120.12" y="28.2339" width="5.148" height="6.88004" fill="white"/>
<rect x="116.116" y="28.2339" width="4.004" height="1.04243" fill="white"/>
<rect x="108.394" y="34.0712" width="11.726" height="1.04243" fill="white"/>
<rect x="116.116" y="38.6584" width="8.58" height="1.04243" fill="white"/>
<rect x="34.8918" y="32.195" width="5.148" height="6.46307" fill="white"/>
<rect x="44.0439" y="28.0247" width="5.148" height="11.6752" fill="white"/>
<rect x="34.8918" y="28.0248" width="5.148" height="3.12729" fill="white"/>
<rect x="40.0398" y="32.195" width="4.004" height="1.04243" fill="white"/>
<rect x="40.0398" y="28.0247" width="4.004" height="1.04243" fill="white"/>
<rect x="40.0398" y="37.6151" width="4.004" height="1.04243" fill="white"/>
<rect x="49.1919" y="38.6583" width="2.574" height="1.04243" fill="white"/>
<path fill-rule="evenodd" clip-rule="evenodd" d="M99.8258 43.4691C95.6718 57.7546 82.2487 68.2152 66.3312 68.2152C50.4137 68.2152 36.9906 57.7546 32.8367 43.4691H34.7364C38.7877 56.8918 51.4698 66.6861 66.4873 66.6861C81.5049 66.6861 94.1869 56.8918 98.2383 43.4691H99.8258ZM97.4771 18.8367C91.7573 7.66679 79.9584 0 66.3312 0C52.7041 0 40.9052 7.66679 35.1854 18.8367H37.3606C42.9613 8.71174 53.9045 1.8358 66.4873 1.8358C79.0702 1.8358 90.0134 8.71174 95.6141 18.8367H97.4771Z" fill="white"/>
</svg>
